<?xml version="1.0" encoding="UTF-8"?>
<!DOCTYPE svg PUBLIC "-//W3C//DTD SVG 1.0//EN" "http://www.w3.org/TR/2001/REC-SVG-20010904/DTD/svg10.dtd">
<!-- Creator: CorelDRAW X7 -->
<svg xmlns="http://www.w3.org/2000/svg" xml:space="preserve" width="58.374mm" height="10mm" version="1.0" style="shape-rendering:geometricPrecision; text-rendering:geometricPrecision; image-rendering:optimizeQuality; fill-rule:evenodd; clip-rule:evenodd"
viewBox="0 0 5837 1000"
 xmlns:xlink="http://www.w3.org/1999/xlink">
 <defs>
  <style type="text/css">
   <![CDATA[
    .fil1 {fill:#FFEC00}
    .fil0 {fill:#2B2A29;fill-rule:nonzero}
   ]]>
  </style>
 </defs>
 <g id="Layer_x0020_1">
  <metadata id="CorelCorpID_0Corel-Layer"/>
  <path class="fil0" d="M66030 -12459l153 0c53,0 92,-9 115,-27 24,-18 36,-48 36,-88 0,-19 -4,-36 -11,-51 -8,-15 -18,-27 -32,-36 -11,-7 -24,-13 -38,-16 -15,-3 -40,-4 -73,-4l-23 0 -127 0 0 222zm-52 305l0 -575 191 0c45,0 77,2 97,6 19,3 37,9 51,18 23,12 41,30 53,53 12,22 18,48 18,76 0,35 -8,65 -24,89 -15,24 -38,42 -68,52 23,8 40,20 50,36 10,16 17,49 21,98l8 86c1,13 3,24 6,33 3,9 7,16 12,20l0 8 -58 0c-4,-6 -6,-14 -8,-24 -2,-9 -4,-21 -5,-35l-7 -76c-3,-53 -13,-86 -28,-101 -14,-14 -44,-22 -89,-22l-168 0 0 258 -52 0z"/>
  <polygon id="1" class="fil0" points="66497,-12154 66497,-12729 66552,-12729 66552,-12154 "/>
  <polygon id="2" class="fil0" points="66683,-12154 66683,-12729 66742,-12729 67066,-12236 67066,-12729 67117,-12729 67117,-12154 67059,-12154 66735,-12647 66735,-12154 "/>
  <polygon id="3" class="fil0" points="67246,-12154 67246,-12729 67298,-12729 67298,-12424 67594,-12729 67663,-12729 67429,-12490 67690,-12154 67624,-12154 67394,-12455 67298,-12356 67298,-12154 "/>
  <path id="4" class="fil0" d="M67820 -12377l223 0 -112 -296 -111 296zm-138 223l218 -575 63 0 218 575 -55 0 -66 -177 -257 0 -66 177 -55 0z"/>
  <path id="5" class="fil0" d="M68295 -12202l155 0c57,0 97,-8 119,-24 22,-17 33,-45 33,-85 0,-39 -12,-69 -37,-88 -25,-20 -62,-30 -111,-30l-159 0 0 227zm128 -479l-128 0 0 207 123 0c59,0 100,-8 123,-24 23,-16 35,-42 35,-80 0,-38 -11,-64 -33,-80 -23,-16 -63,-23 -120,-23zm-181 527l0 -575 190 0c33,0 59,2 79,6 19,3 36,9 50,18 21,12 39,29 51,51 12,21 18,46 18,72 0,29 -7,54 -22,76 -15,21 -36,37 -63,48 34,8 62,25 82,51 19,26 29,59 29,98 0,33 -8,63 -23,88 -16,25 -39,42 -67,54 -11,4 -29,8 -52,10 -24,2 -61,3 -113,3l-159 0z"/>
  <polygon id="6" class="fil0" points="68858,-12154 68858,-12407 68655,-12729 68716,-12729 68884,-12457 69053,-12729 69114,-12729 68911,-12407 68911,-12154 "/>
  <path id="7" class="fil0" d="M69437 -12459l153 0c53,0 92,-9 115,-27 24,-18 36,-48 36,-88 0,-19 -4,-36 -11,-51 -8,-15 -18,-27 -32,-36 -11,-7 -24,-13 -38,-16 -15,-3 -40,-4 -73,-4l-23 0 -127 0 0 222zm-52 305l0 -575 191 0c45,0 77,2 97,6 19,3 37,9 51,18 23,12 41,30 53,53 12,22 18,48 18,76 0,35 -8,65 -24,89 -16,24 -38,42 -68,52 23,8 40,20 50,36 10,16 17,49 21,98l8 86c1,13 3,24 6,33 3,9 7,16 12,20l0 8 -58 0c-4,-6 -6,-14 -8,-24 -2,-9 -4,-21 -5,-35l-7 -76c-4,-53 -13,-86 -28,-101 -15,-14 -44,-22 -89,-22l-168 0 0 258 -52 0z"/>
  <path id="8" class="fil0" d="M69931 -12441c0,79 19,141 56,187 37,46 88,68 152,68 64,0 115,-22 153,-68 38,-46 56,-108 56,-187 0,-79 -18,-141 -56,-188 -38,-45 -89,-68 -153,-68 -63,0 -114,23 -152,69 -37,46 -56,109 -56,187zm-55 0c0,-93 24,-167 71,-221 48,-55 112,-82 192,-82 81,0 145,27 193,82 47,54 71,128 71,221 0,93 -24,167 -71,221 -48,54 -112,82 -193,82 -80,0 -144,-28 -192,-82 -47,-54 -71,-128 -71,-221zm299 -375l0 -64 55 0 0 64 -55 0zm-125 0l0 -64 55 0 0 64 -55 0z"/>
  <path id="9" class="fil0" d="M70558 -12459l153 0c53,0 92,-9 116,-27 23,-18 35,-48 35,-88 0,-19 -4,-36 -11,-51 -8,-15 -18,-27 -32,-36 -11,-7 -23,-13 -38,-16 -15,-3 -39,-4 -73,-4l-23 0 -127 0 0 222zm-52 305l0 -575 191 0c45,0 77,2 97,6 20,3 37,9 52,18 22,12 40,30 52,53 12,22 18,48 18,76 0,35 -8,65 -24,89 -15,24 -38,42 -68,52 23,8 40,20 50,36 10,16 17,49 21,98l8 86c1,13 3,24 6,33 3,9 7,16 12,20l0 8 -58 0c-4,-6 -6,-14 -8,-24 -2,-9 -4,-21 -5,-35l-7 -76c-3,-53 -13,-86 -28,-101 -14,-14 -44,-22 -89,-22l-168 0 0 258 -52 0z"/>
  <path class="fil1" d="M230 447l133 0c35,0 63,-9 81,-27 19,-18 30,-46 34,-85 3,-34 -2,-59 -17,-76 -15,-16 -39,-25 -72,-25l-138 0 -21 213zm-230 531l93 -930 333 0c88,0 150,21 188,63 37,42 51,108 43,196 -6,52 -19,97 -41,134 -21,37 -52,69 -92,94 29,15 49,37 58,63 10,27 13,74 8,141 -1,19 -3,45 -5,77 -5,75 0,118 16,130l-3 32 -187 0c-5,-33 -6,-78 -2,-135 5,-57 7,-93 8,-108 0,-36 -6,-63 -20,-80 -13,-16 -36,-25 -67,-25l-118 0 -35 348 -177 0zm687 0l79 -786 150 0 -79 786 -150 0zm264 0l74 -786 152 0 79 258c13,42 25,84 37,125 11,41 22,82 31,122 4,-59 7,-115 11,-167 4,-51 8,-97 12,-137l19 -201 135 0 -73 786 -152 0 -83 -265c-10,-32 -20,-67 -31,-106 -12,-39 -24,-81 -36,-126 -2,51 -4,99 -7,143 -3,44 -6,83 -10,117l-22 237 -136 0zm595 0l73 -786 138 0 -28 300 223 -300 169 0 -253 330 184 456 -167 0 -125 -315 -53 68 -23 247 -138 0zm759 -307l124 0 -37 -271 -87 271zm32 -479l160 0 124 786 -156 0 -21 -144 -190 0 -47 144 -151 0 281 -786zm518 307l112 0c24,0 42,-6 55,-19 13,-12 20,-31 23,-57 2,-24 -2,-42 -11,-54 -10,-12 -26,-18 -47,-18l-118 0 -14 148zm-30 323l105 0c34,0 58,-7 72,-20 15,-14 24,-36 27,-68 2,-28 -2,-50 -13,-64 -12,-15 -30,-22 -55,-22l-120 0 -16 174zm-148 156l73 -786 265 0c63,0 109,17 136,50 27,32 37,83 31,151 -4,43 -14,77 -30,105 -16,28 -39,49 -68,64 31,12 53,32 67,63 14,30 19,68 15,113 -4,44 -15,84 -32,120 -18,36 -40,63 -67,83 -18,13 -40,23 -64,29 -25,5 -63,8 -113,8l-213 0zm665 0l30 -296 -154 -490 169 0 76 317 140 -317 169 0 -254 490 -29 296 -147 0zm1523 -847l1 -131 107 0 0 131 -108 0zm156 0l0 -131 108 0 -1 131 -107 0zm-343 455c12,-128 46,-229 102,-303 55,-74 125,-112 209,-112 85,0 148,38 190,112 43,74 58,175 46,303 -11,127 -46,228 -102,303 -56,74 -127,111 -211,111 -84,0 -147,-37 -189,-111 -42,-74 -57,-176 -45,-303zm142 0c-8,80 -2,141 16,184 19,43 49,64 92,64 42,0 77,-21 103,-64 27,-43 44,-104 52,-184 7,-80 2,-141 -17,-184 -19,-43 -50,-64 -92,-64 -42,0 -77,21 -103,64 -27,42 -44,104 -51,184zm650 -57l111 0c31,0 54,-8 69,-23 16,-14 26,-38 29,-71 3,-29 -2,-50 -14,-64 -13,-14 -33,-21 -62,-21l-115 0 -18 179zm-195 449l79 -786 281 0c74,0 127,18 159,54 31,35 43,90 36,165 -5,44 -16,82 -34,113 -18,32 -44,58 -78,80 25,13 41,31 49,53 9,23 11,62 7,119 -1,16 -2,38 -4,65 -5,63 0,100 13,110l-3 27 -157 0c-5,-28 -6,-66 -2,-114 4,-48 6,-79 6,-91 1,-31 -5,-53 -16,-68 -12,-14 -31,-21 -57,-21l-100 0 -30 294 -149 0zm-1054 -531l132 0c36,0 63,-9 82,-27 19,-18 30,-46 34,-85 3,-34 -3,-59 -17,-76 -15,-16 -39,-25 -73,-25l-137 0 -21 213zm-230 531l93 -930 332 0c88,0 151,21 188,63 38,42 52,108 43,196 -5,52 -18,97 -40,134 -21,37 -52,69 -92,94 29,15 48,37 58,63 10,27 13,74 8,141 -1,19 -3,45 -5,77 -5,75 0,118 16,130l-3 32 -187 0c-6,-33 -6,-78 -2,-135 5,-57 7,-93 7,-108 1,-36 -5,-63 -19,-80 -14,-16 -36,-25 -67,-25l-119 0 -34 348 -177 0z"/>
 </g>
</svg>
