<svg id="533528f4-35d9-4023-9479-fbf63f8def54" data-name="Lager 1" xmlns="http://www.w3.org/2000/svg" viewBox="0 0 15.6 16"><defs><style>.\32 b8d8424-bb0a-4d5f-9fee-92945fd5c299{fill:#fff;}</style></defs><title>Namnlöst-5</title><path class="2b8d8424-bb0a-4d5f-9fee-92945fd5c299" d="M10,12c-1.92,0-3.26-2.3-3.58-3.24l-0.05,0A0.67,0.67,0,0,1,6.1,8.52a2.2,2.2,0,0,1-.36-1.95,1,1,0,0,1,.4-0.44,6.85,6.85,0,0,1,.2-1.67A3.64,3.64,0,0,1,10,2a3.64,3.64,0,0,1,3.66,2.45,6.84,6.84,0,0,1,.2,1.67,1,1,0,0,1,.4.44,2.2,2.2,0,0,1-.36,1.95,0.68,0.68,0,0,1-.27.23l-0.05,0C13.26,9.72,11.92,12,10,12ZM6.7,8.1l0.05,0a0.62,0.62,0,0,1,.33.33c0.17,0.6,1.34,2.83,2.92,2.83s2.75-2.23,2.92-2.83a0.62,0.62,0,0,1,.33-0.33l0.05,0a1.51,1.51,0,0,0,.31-1.22,0.3,0.3,0,0,0-.19-0.17,0.37,0.37,0,0,1-.29-0.37A6.36,6.36,0,0,0,13,4.64a2.87,2.87,0,0,0-3-1.91A2.9,2.9,0,0,0,7,4.64a6.32,6.32,0,0,0-.17,1.7,0.36,0.36,0,0,1-.3.38,0.3,0.3,0,0,0-.18.17A1.51,1.51,0,0,0,6.7,8.1Z" transform="translate(-2.2 -2)"/><path class="2b8d8424-bb0a-4d5f-9fee-92945fd5c299" d="M10,18a39.8,39.8,0,0,1-7.51-.67A0.36,0.36,0,0,1,2.2,17,5.07,5.07,0,0,1,6.14,11.9a5.08,5.08,0,0,0,1.91-1,0.36,0.36,0,1,1,.51.52,5.76,5.76,0,0,1-2.2,1.21,4.28,4.28,0,0,0-3.41,4.08,40.68,40.68,0,0,0,7.05.6,40.62,40.62,0,0,0,7.05-.6,4.28,4.28,0,0,0-3.41-4.08,5.76,5.76,0,0,1-2.2-1.21A0.36,0.36,0,0,1,12,10.87a5.15,5.15,0,0,0,1.91,1A5.07,5.07,0,0,1,17.8,17a0.36,0.36,0,0,1-.29.37A39.79,39.79,0,0,1,10,18Z" transform="translate(-2.2 -2)"/></svg>