<svg id="86806c7f-1304-4914-bee3-fbe85508b7c7" data-name="Lager 1" xmlns="http://www.w3.org/2000/svg" viewBox="0 0 24 24"><defs><style>.\35 6e4d0ce-5ad2-4ee2-9bc5-e77640794576{fill:#fff;}</style></defs><title>Namnlöst-2</title><path class="56e4d0ce-5ad2-4ee2-9bc5-e77640794576" d="M9.69,11.66a8.66,8.66,0,1,1,8.66,8.66A8.67,8.67,0,0,1,9.69,11.66Zm1.15,0a7.5,7.5,0,1,0,7.5-7.5A7.51,7.51,0,0,0,10.84,11.66Z" transform="translate(-3 -3)"/><path class="56e4d0ce-5ad2-4ee2-9bc5-e77640794576" d="M5,27a1.15,1.15,0,0,0,.82-0.34l7.86-7.86A0.58,0.58,0,0,0,12.83,18L5,25.85,4.15,25,12,17.17a0.58,0.58,0,0,0-.82-0.82L3.34,24.21a1.16,1.16,0,0,0,0,1.63l0.82,0.82A1.15,1.15,0,0,0,5,27Z" transform="translate(-3 -3)"/></svg>