<svg id="7b43fc24-b629-4e95-a69e-ed5ef624bc59" data-name="Lager 1" xmlns="http://www.w3.org/2000/svg" viewBox="0 0 24 24"><defs><style>.\38 83f6a1b-b0ac-4a69-bcfd-6546967d679e{fill:#009cde;}</style></defs><title>Namnlöst-2</title><path class="883f6a1b-b0ac-4a69-bcfd-6546967d679e" d="M9.69,11.66a8.66,8.66,0,1,1,8.66,8.66A8.67,8.67,0,0,1,9.69,11.66Zm1.15,0a7.5,7.5,0,1,0,7.5-7.5A7.51,7.51,0,0,0,10.84,11.66Z" transform="translate(-3 -3)"/><path class="883f6a1b-b0ac-4a69-bcfd-6546967d679e" d="M5,27a1.15,1.15,0,0,0,.82-0.34l7.86-7.86A0.58,0.58,0,0,0,12.83,18L5,25.85,4.15,25,12,17.17a0.58,0.58,0,0,0-.82-0.82L3.34,24.21a1.16,1.16,0,0,0,0,1.63l0.82,0.82A1.15,1.15,0,0,0,5,27Z" transform="translate(-3 -3)"/></svg>