<svg id="288b0f6d-48cb-47fa-bc5c-573c81c494bb" data-name="Lager 1" xmlns="http://www.w3.org/2000/svg" viewBox="0 0 14.96 16"><defs><style>.\37 297f5b3-93ca-4e9a-899f-1fbb3b578a22{fill:#FFF;}</style></defs><title>Namnlöst-5</title><path class="7297f5b3-93ca-4e9a-899f-1fbb3b578a22" d="M15,18H2.87a0.35,0.35,0,0,1-.35-0.35V3.74a0.35,0.35,0,0,1,.35-0.35H15a1,1,0,0,1,1,1V17A1,1,0,0,1,15,18ZM3.22,17.3H15A0.35,0.35,0,0,0,15.39,17V4.43A0.35,0.35,0,0,0,15,4.09H3.22V17.3Z" transform="translate(-2.52 -2)"/><path class="7297f5b3-93ca-4e9a-899f-1fbb3b578a22" d="M15.74,17.65a0.35,0.35,0,0,1-.29-0.54l1.27-1.91A0.35,0.35,0,0,0,16.78,15V3a0.35,0.35,0,0,0-.35-0.35H5.06L3.06,4a0.35,0.35,0,0,1-.39-0.58L4.76,2.06A0.35,0.35,0,0,1,5,2H16.43a1,1,0,0,1,1,1V15a1,1,0,0,1-.18.58L16,17.5A0.35,0.35,0,0,1,15.74,17.65Z" transform="translate(-2.52 -2)"/><path class="7297f5b3-93ca-4e9a-899f-1fbb3b578a22" d="M13.65,15.57H7.74a0.35,0.35,0,0,1-.35-0.35V13.13a0.35,0.35,0,0,1,.35-0.35h5.91a0.35,0.35,0,0,1,.35.35v2.09A0.35,0.35,0,0,1,13.65,15.57Zm-5.57-.7H13.3V13.48H8.09v1.39Z" transform="translate(-2.52 -2)"/><rect class="7297f5b3-93ca-4e9a-899f-1fbb3b578a22" x="2.48" y="2" width="1" height="14"/></svg>
