<svg id="2873994d-f0f1-4616-a84a-aa4443fcb6ad" data-name="Lager 1" xmlns="http://www.w3.org/2000/svg" viewBox="0 0 24 21.9"><defs><style>.\35 a936cba-cae1-4b6e-aefb-3f19c6059138{fill:#fff;}</style></defs><title>Namnlöst-2</title><path class="5a936cba-cae1-4b6e-aefb-3f19c6059138" d="M23.19,19H11.58a1.74,1.74,0,0,1-1.67-1.23L6.06,5.21H3.58A0.58,0.58,0,1,1,3.58,4H6.91L11,17.41a0.58,0.58,0,0,0,.55.41h11.6a0.58,0.58,0,0,0,.56-0.44L25.86,9A0.58,0.58,0,1,1,27,9.24l-2.1,8.42A1.74,1.74,0,0,1,23.19,19Z" transform="translate(-3 -4.05)"/><path class="5a936cba-cae1-4b6e-aefb-3f19c6059138" d="M13.05,26A2.91,2.91,0,1,1,16,23,2.91,2.91,0,0,1,13.05,26Zm0-4.65A1.74,1.74,0,1,0,14.8,23,1.75,1.75,0,0,0,13.05,21.3Z" transform="translate(-3 -4.05)"/><path class="5a936cba-cae1-4b6e-aefb-3f19c6059138" d="M22.35,26A2.91,2.91,0,1,1,25.26,23,2.91,2.91,0,0,1,22.35,26Zm0-4.65A1.74,1.74,0,1,0,24.09,23,1.75,1.75,0,0,0,22.35,21.3Z" transform="translate(-3 -4.05)"/><path class="5a936cba-cae1-4b6e-aefb-3f19c6059138" d="M25.84,12H12.47a0.58,0.58,0,1,1,0-1.16H25.84A0.58,0.58,0,0,1,25.84,12Z" transform="translate(-3 -4.05)"/></svg>