<?xml version="1.0" encoding="UTF-8"?>
<!DOCTYPE svg PUBLIC "-//W3C//DTD SVG 1.0//EN" "http://www.w3.org/TR/2001/REC-SVG-20010904/DTD/svg10.dtd">
<!-- Creator: CorelDRAW X7 -->
<svg xmlns="http://www.w3.org/2000/svg" xml:space="preserve" width="17mm" height="17mm" version="1.0" style="shape-rendering:geometricPrecision; text-rendering:geometricPrecision; image-rendering:optimizeQuality; fill-rule:evenodd; clip-rule:evenodd"
viewBox="0 0 1700 1700"
 xmlns:xlink="http://www.w3.org/1999/xlink">
 <defs>
  <style type="text/css">
   <![CDATA[
    .fil0 {fill:#009cde}
   ]]>
  </style>
 </defs>
 <g id="Layer_x0020_1">
  <metadata id="CorelCorpID_0Corel-Layer"/>
  <path class="fil0" d="M1585 1041l42 0 0 442 -42 0 0 -442zm-71 546l-87 0c-11,-12 -30,-27 -35,-42l27 -32 -1 -502 -27 -51c16,-7 128,-3 153,-3 0,51 -23,-17 -22,67 1,56 -10,496 9,519 9,12 21,1 6,20 -3,5 -19,23 -23,24zm-1309 -335c-36,-84 -30,-39 -31,-140l0 -509c0,-80 8,-82 -16,-156 -3,-8 21,-35 37,-37l422 1 -3 562 99 68 622 0 0 442c-227,0 -454,0 -681,0 -153,0 -151,9 -289,-53 -74,-33 -128,-104 -160,-178zm-135 -1029l630 0 -4 125 -626 0 0 -125zm104 -104l393 0c22,0 91,41 19,41l-412 0 0 -41zm-62 41c-73,5 -66,-3 -105,21l-1 216 101 19c12,22 5,510 5,579 0,123 -8,148 26,266 20,71 79,118 125,171 44,52 132,77 194,98 131,44 843,-7 868,17l50 106c15,-8 154,-3 181,-3 38,-38 29,-15 30,-103l106 -2 2 -567 -109 0 0 -81 -222 -2c-35,37 -28,18 -28,81l-627 2 -29 -33c-7,-18 6,-392 1,-460 -2,-37 -17,-22 -20,-42 34,-61 106,-3 108,-86 1,-30 4,-175 -5,-193l-105 -22c4,-20 6,-18 26,-43 -33,-81 -244,-43 -318,-43 -314,0 -254,-23 -254,104z"/>
 </g>
</svg>
