<svg width="575" height="202" viewBox="0 0 575 202" fill="none" xmlns="http://www.w3.org/2000/svg">
<path d="M210 37H66C34.5198 37 9 62.5198 9 94V115C9 146.48 34.5198 172 66 172H510C541.48 172 567 146.48 567 115V94C567 62.5198 541.48 37 510 37H365" stroke="black"/>
<path d="M505.103 105.574L507.076 92.4678C506.299 92.4678 504.968 92.4678 504.968 92.4678C503.982 92.4678 502.711 91.885 502.338 90.8138C502.218 90.4515 501.934 89.2071 503.563 87.9941C504.146 87.5688 504.52 87.0962 504.595 86.7339C504.669 86.3559 504.58 86.0251 504.326 85.773C503.967 85.4107 503.264 85.2059 502.367 85.2059C500.858 85.2059 499.796 86.1196 499.692 86.7812C499.617 87.2695 499.976 87.6633 500.29 87.9154C501.231 88.6557 501.456 89.7269 500.873 90.735C500.275 91.7747 498.974 92.4521 497.584 92.4678C497.584 92.4678 496.209 92.4678 495.432 92.4678C495.253 93.7438 492.323 113.308 492.099 114.852H503.772C503.877 114.159 504.415 110.457 505.148 105.574H505.103Z" fill="#479CBE"/>
<path d="M520.738 81H508.855L507.27 91.6014H509.288C510.394 91.6014 511.441 91.0658 511.889 90.294C512.038 90.0419 512.098 89.8214 512.098 89.6166C512.098 89.1755 511.814 88.8447 511.53 88.6242C510.753 88.0098 510.589 87.364 510.589 86.9072C510.589 86.8127 510.589 86.7339 510.604 86.6551C510.768 85.5367 512.203 84.3238 514.101 84.3238C515.237 84.3238 516.104 84.6073 516.627 85.1271C517.091 85.584 517.27 86.2298 517.135 86.9072C516.971 87.7106 516.209 88.3722 515.775 88.703C514.624 89.5536 514.774 90.294 514.849 90.5145C515.088 91.1761 515.999 91.6014 516.702 91.6014H519.766C519.766 91.6014 519.766 91.6014 519.766 91.6172C523.951 91.6487 526.194 93.6807 525.491 98.4065C524.833 102.801 521.635 104.692 517.823 104.723L516.313 114.868H518.541C527.942 114.868 535.625 108.504 537.135 98.4537C539.003 85.9778 531.5 81 520.738 81Z" fill="#00A5C3"/>
<path d="M520.738 81H508.855L507.27 91.6014H509.288C510.394 91.6014 511.441 91.0658 511.889 90.294C512.038 90.0419 512.098 89.8214 512.098 89.6166C512.098 89.1755 511.814 88.8447 511.53 88.6242C510.753 88.0098 510.589 87.364 510.589 86.9072C510.589 86.8127 510.589 86.7339 510.604 86.6551C510.768 85.5367 512.203 84.3238 514.101 84.3238C515.237 84.3238 516.104 84.6073 516.627 85.1271C517.091 85.584 517.27 86.2298 517.135 86.9072C516.971 87.7106 516.209 88.3722 515.775 88.703C514.624 89.5536 514.774 90.294 514.849 90.5145C515.088 91.1761 515.999 91.6014 516.702 91.6014H519.766C519.766 91.6014 519.766 91.6014 519.766 91.6172C523.951 91.6487 526.194 93.6807 525.491 98.4065C524.833 102.801 521.635 104.692 517.823 104.723L516.313 114.868H518.541C527.942 114.868 535.625 108.504 537.135 98.4537C539.003 85.9778 531.5 81 520.738 81Z" fill="#235971"/>
<path d="M491.271 122.357H496.039C498.072 122.357 498.565 123.444 498.415 124.436C498.296 125.24 497.773 125.838 496.876 126.232C498.012 126.689 498.46 127.398 498.296 128.516C498.086 129.918 496.936 130.958 495.426 130.958H490L491.271 122.357ZM494.424 125.917C495.351 125.917 495.785 125.397 495.874 124.783C495.964 124.121 495.68 123.665 494.753 123.665H493.931L493.602 125.917H494.424ZM493.916 129.635C494.873 129.635 495.426 129.225 495.56 128.39C495.665 127.666 495.276 127.24 494.35 127.24H493.408L493.049 129.651H493.916V129.635Z" fill="black"/>
<path d="M504.977 131.021C503.736 131.116 503.139 130.974 502.84 130.407C502.182 130.832 501.45 131.053 500.672 131.053C499.267 131.053 498.774 130.281 498.908 129.43C498.968 129.02 499.192 128.627 499.551 128.296C500.328 127.587 502.242 127.492 502.989 126.957C503.049 126.358 502.825 126.138 502.122 126.138C501.3 126.138 500.612 126.421 499.432 127.272L499.716 125.319C500.732 124.547 501.719 124.184 502.855 124.184C504.304 124.184 505.59 124.815 505.351 126.484L505.067 128.375C504.962 129.036 504.992 129.241 505.695 129.257L504.977 131.021ZM502.825 128.06C502.167 128.501 500.941 128.422 500.807 129.336C500.747 129.761 501.001 130.076 501.405 130.076C501.793 130.076 502.272 129.903 502.66 129.619C502.63 129.462 502.645 129.304 502.69 129.005L502.825 128.06Z" fill="black"/>
<path d="M507.294 124.295H509.775L509.641 125.161C510.433 124.452 511.031 124.184 511.808 124.184C513.198 124.184 513.841 125.082 513.617 126.547L512.974 130.942H510.493L511.031 127.303C511.136 126.642 510.941 126.327 510.463 126.327C510.074 126.327 509.716 126.547 509.372 127.036L508.804 130.927H506.323L507.294 124.295Z" fill="black"/>
<path d="M515.545 122.357H518.026L517.398 126.579L519.775 124.295H522.839L519.79 127.13L522.241 130.942H519.117L517.234 127.87H517.204L516.756 130.942H514.274L515.545 122.357Z" fill="black"/>
<path d="M523.785 122.357H526.64L525.384 130.942H522.53L523.785 122.357Z" fill="black"/>
<path d="M528.03 122.357H532.111C535.265 122.357 536.176 124.767 535.877 126.768C535.593 128.721 534.129 130.942 531.363 130.942H526.76L528.03 122.357ZM530.676 128.894C532.066 128.894 532.828 128.17 533.052 126.642C533.217 125.508 532.888 124.389 531.348 124.389H530.586L529.928 128.894H530.676Z" fill="black"/>
<path d="M406.461 87.8137L396.054 112.213H389.244L384.105 92.7441C383.848 91.6063 383.463 91.1006 382.563 90.5949C381.022 89.8364 378.452 88.9515 376.268 88.5722L376.396 87.8137H387.317C388.73 87.8137 390.015 88.6986 390.272 90.3421L392.97 104.501L399.651 87.9401H406.461V87.8137ZM433.056 104.248C433.056 97.8008 424.063 97.4216 424.063 94.6403C424.063 93.7554 424.962 92.8705 426.761 92.6176C427.66 92.4912 430.23 92.3648 433.056 93.7554L434.213 88.5722C432.671 88.0665 430.744 87.4344 428.174 87.4344C421.878 87.4344 417.382 90.7213 417.382 95.5253C417.382 99.065 420.594 100.961 423.035 102.099C425.476 103.237 426.375 103.995 426.375 105.133C426.375 106.777 424.448 107.535 422.521 107.535C419.309 107.535 417.382 106.65 415.968 106.018L414.812 111.328C416.354 111.96 419.052 112.592 421.878 112.592C428.559 112.592 432.928 109.305 433.056 104.248ZM449.759 112.213H455.669L450.53 87.8137H445.005C443.72 87.8137 442.692 88.5722 442.307 89.5836L432.671 112.213H439.352L440.637 108.546H448.859L449.759 112.213ZM442.564 103.616L445.904 94.5139L447.832 103.616H442.564ZM415.583 87.8137L410.315 112.213H403.891L409.159 87.8137H415.583Z" fill="#1A1F71"/>
<g clip-path="url(#clip0)">
<path d="M39.2288 128.327V129.298H41.8979V130.216H39.2288V132.008H38V127.417H42.2571V128.335L39.2288 128.327Z" fill="black"/>
<path d="M47.2459 132.008L46.7354 130.97H44.3691L43.8585 132.008H42.6045L45.0019 127.385H46.1356L48.5329 132.008H47.2459ZM45.5512 128.597L44.8097 130.087H46.2947L45.5512 128.597Z" fill="black"/>
<path d="M53.4869 132.008L51.7553 130.054L51.107 130.605V132.008H49.8782V127.417H51.107V129.424L53.3762 127.417H54.8632L52.5842 129.357L54.9661 132.008H53.4869Z" fill="black"/>
<path d="M58.6429 128.342V132.008H57.4122V128.342H55.7117V127.411H60.3453V128.342H58.6429Z" fill="black"/>
<path d="M64.1036 132.073C62.6011 132.073 61.6829 131.385 61.6829 130.033V127.409H62.9136V130.006C62.9136 130.755 63.3678 131.141 64.1191 131.141C64.8703 131.141 65.3246 130.768 65.3246 130.039V127.409H66.5553V129.999C66.5553 131.391 65.6041 132.073 64.1036 132.073Z" fill="black"/>
<path d="M71.6896 132.008L70.4899 130.538H69.5193V132.008H68.2886V127.417H70.8451C72.1632 127.417 72.9552 127.988 72.9552 128.932V128.946C72.9713 129.258 72.8629 129.566 72.6463 129.823C72.4298 130.08 72.117 130.272 71.7556 130.369L73.1358 132.008H71.6896ZM71.7129 128.979C71.7129 128.547 71.346 128.324 70.7423 128.324H69.5193V129.642H70.7656C71.3654 129.642 71.709 129.379 71.709 128.992L71.7129 128.979Z" fill="black"/>
<path d="M78.713 132.008L78.2005 130.978H75.8361L75.3256 132.008H74.0715L76.4689 127.385H77.6006L79.998 132.008H78.713ZM77.0183 128.589L76.2767 130.079H77.7618L77.0183 128.589Z" fill="black"/>
<path d="M52.4639 86.3622H70.3716C70.5482 86.3622 70.7175 86.3046 70.8424 86.202C70.9673 86.0995 71.0374 85.9604 71.0374 85.8154C71.0374 85.6704 70.9673 85.5313 70.8424 85.4288C70.7175 85.3263 70.5482 85.2687 70.3716 85.2687H52.4639C52.2873 85.2687 52.118 85.3263 51.9931 85.4288C51.8682 85.5313 51.7981 85.6704 51.7981 85.8154C51.7981 85.9604 51.8682 86.0995 51.9931 86.202C52.118 86.3046 52.2873 86.3622 52.4639 86.3622Z" fill="black"/>
<path d="M70.3716 88.7979H52.4639C52.2873 88.7979 52.118 88.8555 51.9931 88.958C51.8682 89.0605 51.7981 89.1996 51.7981 89.3446C51.7981 89.4896 51.8682 89.6287 51.9931 89.7312C52.118 89.8337 52.2873 89.8913 52.4639 89.8913H70.3716C70.5482 89.8913 70.7175 89.8337 70.8424 89.7312C70.9673 89.6287 71.0374 89.4896 71.0374 89.3446C71.0374 89.1996 70.9673 89.0605 70.8424 88.958C70.7175 88.8555 70.5482 88.7979 70.3716 88.7979Z" fill="black"/>
<path d="M52.4639 93.4204H56.6356C56.723 93.4204 56.8096 93.4062 56.8904 93.3788C56.9712 93.3513 57.0446 93.311 57.1064 93.2603C57.1682 93.2095 57.2173 93.1492 57.2507 93.0829C57.2842 93.0165 57.3014 92.9454 57.3014 92.8736C57.3014 92.8018 57.2842 92.7308 57.2507 92.6644C57.2173 92.5981 57.1682 92.5378 57.1064 92.487C57.0446 92.4363 56.9712 92.396 56.8904 92.3685C56.8096 92.341 56.723 92.3269 56.6356 92.3269H52.4639C52.3765 92.3269 52.2899 92.341 52.2091 92.3685C52.1283 92.396 52.0549 92.4363 51.9931 92.487C51.9313 92.5378 51.8822 92.5981 51.8488 92.6644C51.8153 92.7308 51.7981 92.8018 51.7981 92.8736C51.7981 92.9454 51.8153 93.0165 51.8488 93.0829C51.8822 93.1492 51.9313 93.2095 51.9931 93.2603C52.0549 93.311 52.1283 93.3513 52.2091 93.3788C52.2899 93.4062 52.3765 93.4204 52.4639 93.4204Z" fill="black"/>
<path d="M59.2057 95.8561H52.4639C52.2873 95.8561 52.118 95.9137 51.9931 96.0162C51.8682 96.1187 51.7981 96.2578 51.7981 96.4028C51.7981 96.5478 51.8682 96.6869 51.9931 96.7894C52.118 96.892 52.2873 96.9496 52.4639 96.9496H59.2057C59.3823 96.9496 59.5517 96.892 59.6766 96.7894C59.8014 96.6869 59.8716 96.5478 59.8716 96.4028C59.8716 96.2578 59.8014 96.1187 59.6766 96.0162C59.5517 95.9137 59.3823 95.8561 59.2057 95.8561Z" fill="black"/>
<path d="M70.3716 92.3269H59.7105C59.6231 92.3269 59.5365 92.341 59.4557 92.3685C59.3749 92.396 59.3015 92.4363 59.2397 92.487C59.1779 92.5378 59.1288 92.5981 59.0954 92.6644C59.0619 92.7308 59.0447 92.8018 59.0447 92.8736C59.0447 92.9454 59.0619 93.0165 59.0954 93.0829C59.1288 93.1492 59.1779 93.2095 59.2397 93.2603C59.3015 93.311 59.3749 93.3513 59.4557 93.3788C59.5365 93.4062 59.6231 93.4204 59.7105 93.4204H70.3716C70.4591 93.4204 70.5457 93.4062 70.6264 93.3788C70.7072 93.3513 70.7806 93.311 70.8425 93.2603C70.9043 93.2095 70.9533 93.1492 70.9868 93.0829C71.0202 93.0165 71.0375 92.9454 71.0375 92.8736C71.0375 92.8018 71.0202 92.7308 70.9868 92.6644C70.9533 92.5981 70.9043 92.5378 70.8425 92.487C70.7806 92.4363 70.7072 92.396 70.6264 92.3685C70.5457 92.341 70.4591 92.3269 70.3716 92.3269Z" fill="black"/>
<path d="M70.3716 95.8561H63.0047C62.8281 95.8561 62.6588 95.9137 62.5339 96.0162C62.409 96.1187 62.3389 96.2578 62.3389 96.4028C62.3389 96.5478 62.409 96.6869 62.5339 96.7894C62.6588 96.892 62.8281 96.9496 63.0047 96.9496H70.3716C70.5482 96.9496 70.7175 96.892 70.8424 96.7894C70.9673 96.6869 71.0374 96.5478 71.0374 96.4028C71.0374 96.2578 70.9673 96.1187 70.8424 96.0162C70.7175 95.9137 70.5482 95.8561 70.3716 95.8561Z" fill="black"/>
<path opacity="0.2" d="M63.0514 109.533C61.3947 108.653 60.2293 107.271 59.8096 105.688C59.78 105.542 59.69 105.41 59.5548 105.313C59.4196 105.216 59.2476 105.16 59.068 105.156L40.448 105.181C40.333 105.18 40.2195 105.201 40.1159 105.242C40.0123 105.283 39.9214 105.343 39.8501 105.417C39.7751 105.494 39.722 105.583 39.6944 105.679C39.6669 105.774 39.6657 105.874 39.6909 105.97C40.2674 108.171 42.228 109.533 44.7943 109.533H63.0514Z" fill="white"/>
<path d="M72.5205 81H50.0355C49.4798 81.0013 48.9473 81.1833 48.5548 81.5063C48.1622 81.8292 47.9415 82.2668 47.9409 82.7231V104.083L40.444 104.091C40.131 104.09 39.8218 104.146 39.5392 104.257C39.2566 104.367 39.0078 104.528 38.8114 104.728C38.6099 104.932 38.4671 105.171 38.3938 105.426C38.3205 105.682 38.3186 105.948 38.3883 106.204C39.1065 108.933 41.566 110.629 44.7942 110.629H67.7005C69.5317 110.628 71.2873 110.029 72.5821 108.966C73.8769 107.903 74.6053 106.461 74.6073 104.958V82.7231C74.6068 82.2679 74.3872 81.8313 73.9963 81.5085C73.6054 81.1857 73.0749 81.0029 72.5205 81V81ZM44.7942 109.533C42.2202 109.533 40.2596 108.168 39.6792 105.97C39.654 105.874 39.6552 105.774 39.6827 105.679C39.7103 105.583 39.7634 105.494 39.8383 105.417C39.9097 105.343 40.0005 105.283 40.1041 105.242C40.2077 105.201 40.3213 105.18 40.4362 105.181L59.0563 105.155C59.2108 105.158 59.3607 105.199 59.4859 105.274C59.6111 105.348 59.7057 105.452 59.7571 105.571L59.8037 105.709C60.228 107.283 61.3905 108.658 63.0397 109.534L44.7942 109.533ZM73.2873 104.958C73.2848 106.085 72.7773 107.172 71.8615 108.011C70.9456 108.85 69.6856 109.383 68.3217 109.509C68.2402 109.509 68.0247 109.509 67.7141 109.477C66.0485 109.298 65.1905 108.379 65.1905 106.738C65.1798 106.281 64.9494 105.845 64.5495 105.526C64.1496 105.207 63.6126 105.031 63.0552 105.036H60.9373C60.7698 104.745 60.5051 104.499 60.1742 104.327C59.8433 104.155 59.4597 104.064 59.068 104.064L49.2784 104.081V82.7215C49.281 82.5538 49.3639 82.3937 49.5093 82.2758C49.6546 82.158 49.8507 82.0919 50.0549 82.0919H72.5205C72.7248 82.094 72.9198 82.1621 73.0633 82.2814C73.2068 82.4008 73.2873 82.5618 73.2873 82.7295V104.958Z" fill="black"/>
</g>
<g clip-path="url(#clip1)">
<path d="M106.886 132H104.991V127.189H106.886C108.413 127.189 109.469 128.228 109.469 129.58V129.602C109.469 130.948 108.413 132 106.886 132ZM108.35 129.602C108.36 129.409 108.329 129.216 108.259 129.036C108.189 128.855 108.082 128.692 107.944 128.555C107.806 128.418 107.64 128.311 107.458 128.242C107.276 128.172 107.081 128.141 106.886 128.151H106.06V131.052H106.886C107.76 131.052 108.35 130.467 108.35 129.615V129.602Z" fill="black"/>
<path d="M110.837 132V127.189H114.502V128.131H111.9V129.101H114.19V130.043H111.9V131.053H114.538V131.995L110.837 132Z" fill="black"/>
<path d="M115.907 132V127.189H116.975V131.038H119.398V132H115.907Z" fill="black"/>
<path d="M122.933 132H120.623V127.189H122.878C123.871 127.189 124.482 127.677 124.482 128.433V128.447C124.487 128.662 124.43 128.875 124.317 129.059C124.203 129.243 124.039 129.391 123.842 129.485C124.404 129.697 124.752 130.021 124.752 130.666V130.681C124.752 131.559 124.03 132 122.933 132ZM123.419 128.612C123.419 128.295 123.17 128.111 122.718 128.111H121.663V129.128H122.648C123.121 129.128 123.419 128.976 123.419 128.619V128.612ZM123.691 130.536C123.691 130.213 123.448 130.015 122.9 130.015H121.663V131.072H122.933C123.406 131.072 123.691 130.905 123.691 130.551V130.536Z" fill="black"/>
<path d="M126.054 132V127.189H129.719V128.131H127.115V129.101H129.407V130.043H127.115V131.053H129.752V131.995L126.054 132Z" fill="black"/>
<path d="M133.323 128.164V132.005H132.254V128.164H130.776V127.189H134.8V128.164H133.323Z" fill="black"/>
<path d="M139.03 132L138.586 130.921H136.539L136.095 132H135.006L137.089 127.157H138.074L140.157 132H139.03ZM137.559 128.433L136.913 129.993H138.204L137.559 128.433Z" fill="black"/>
<path d="M141.317 132V127.189H142.385V131.038H144.803V132H141.317Z" fill="black"/>
<path d="M149.439 132L147.078 128.942V132H146.024V127.189H147.009L149.286 130.151V127.189H150.34V132H149.439Z" fill="black"/>
<path d="M151.983 132V127.189H153.051V132H151.983Z" fill="black"/>
<path d="M158.092 132L155.731 128.942V132H154.677V127.189H155.661L157.938 130.151V127.189H158.992V132H158.092Z" fill="black"/>
<path d="M162.926 132.082C161.408 132.082 160.37 131.03 160.37 129.609V129.602C160.368 129.272 160.432 128.944 160.56 128.639C160.688 128.333 160.876 128.057 161.113 127.825C161.351 127.593 161.633 127.41 161.943 127.288C162.253 127.166 162.585 127.107 162.919 127.114C163.794 127.114 164.32 127.348 164.828 127.774L164.153 128.577C163.812 128.255 163.355 128.079 162.883 128.089C162.108 128.089 161.489 128.77 161.489 129.592V129.602C161.489 130.48 162.099 131.127 162.961 131.127C163.321 131.138 163.675 131.037 163.973 130.838V130.151H162.897V129.236H165.007V131.325C164.429 131.819 163.689 132.088 162.926 132.082Z" fill="black"/>
<path d="M149.994 92.2083C149.81 90.3168 149.216 88.4875 148.252 86.8473L148.133 86.6414C147.612 85.2582 146.864 83.9705 145.921 82.8304L145.896 82.7867V82.807C144.772 81.4494 143.39 80.3265 141.829 79.5028C140.268 78.679 138.559 78.1708 136.8 78.0073C136.572 77.9858 136.342 78.0119 136.125 78.0839C135.908 78.1559 135.708 78.2723 135.539 78.4255C135.369 78.5787 135.234 78.7655 135.141 78.9738C135.048 79.1821 135 79.4074 135 79.6353V90.2388C135 90.5724 135.104 90.8978 135.296 91.1711C135.488 91.4444 135.76 91.6524 136.075 91.767V92.3705C136.075 92.8025 136.248 93.2168 136.554 93.5223C136.861 93.8278 137.277 93.9996 137.711 94H148.354C148.582 94 148.808 93.9525 149.016 93.8607C149.225 93.7689 149.412 93.6347 149.566 93.4667C149.721 93.2979 149.839 93.0989 149.913 92.8822C149.986 92.6656 150.014 92.4361 149.994 92.2083ZM136.075 79.6353C136.074 79.5571 136.091 79.4797 136.122 79.4082C136.154 79.3367 136.201 79.2727 136.259 79.2205C136.363 79.1216 136.501 79.0659 136.645 79.0645H136.7C139.564 79.3321 142.246 80.5869 144.28 82.6125C146.315 84.6381 147.576 87.3073 147.844 90.1593C147.852 90.2379 147.843 90.3172 147.818 90.3922C147.793 90.4671 147.752 90.5361 147.699 90.5947C147.646 90.6534 147.581 90.7004 147.509 90.7328C147.437 90.7652 147.358 90.7823 147.279 90.7831H136.637C136.488 90.7831 136.345 90.7241 136.239 90.6191C136.134 90.5141 136.075 90.3717 136.075 90.2233V79.6353Z" fill="black"/>
<path d="M145.555 96.4639C145.397 96.2973 145.205 96.1641 144.991 96.0729C144.777 95.9816 144.546 95.9344 144.312 95.9342H133.151C133.003 95.9338 132.86 95.8766 132.755 95.7753C132.65 95.674 132.591 95.5367 132.59 95.3934V84.6276C132.59 84.4021 132.541 84.1791 132.446 83.9729C132.351 83.7666 132.214 83.5815 132.041 83.4293C131.865 83.2755 131.658 83.1585 131.433 83.0857C131.208 83.013 130.969 82.9861 130.733 83.0067C127.158 83.3258 123.846 84.9549 121.479 87.5585C119.112 90.1621 117.871 93.5419 118.011 97.0016C118.287 104.018 124.204 109.722 131.48 109.989C131.662 109.989 131.842 110 132.023 110C135.52 110.001 138.89 108.743 141.475 106.472C144.059 104.201 145.67 101.081 145.993 97.7237C146.014 97.4959 145.987 97.2663 145.911 97.0494C145.836 96.8325 145.714 96.6331 145.555 96.4639ZM144.875 97.626C144.574 100.8 143.02 103.742 140.534 105.842C138.047 107.942 134.819 109.04 131.516 108.909C124.933 108.668 119.376 103.308 119.126 96.9606C118.997 93.778 120.138 90.6688 122.314 88.2732C124.491 85.8777 127.537 84.3782 130.826 84.0836H130.882C131.028 84.083 131.168 84.1354 131.276 84.2303C131.334 84.2807 131.38 84.3422 131.411 84.4109C131.443 84.4797 131.459 84.554 131.459 84.6292V95.3949C131.46 95.6085 131.504 95.8199 131.589 96.017C131.675 96.2141 131.8 96.393 131.957 96.5436C132.114 96.6941 132.3 96.8133 132.505 96.8943C132.71 96.9753 132.93 97.0166 133.151 97.0158H144.315C144.393 97.0156 144.47 97.0313 144.542 97.0617C144.613 97.0921 144.677 97.1366 144.729 97.1924C144.784 97.2503 144.826 97.3189 144.852 97.3937C144.878 97.4685 144.886 97.5477 144.878 97.626H144.875Z" fill="black"/>
</g>
<path d="M207.022 128.455V125.564C207.039 125.321 207.005 125.078 206.923 124.849C206.842 124.621 206.714 124.413 206.549 124.24C206.385 124.067 206.186 123.932 205.967 123.845C205.749 123.758 205.515 123.72 205.281 123.734C204.974 123.713 204.669 123.778 204.395 123.922C204.121 124.066 203.889 124.284 203.724 124.553C203.574 124.292 203.358 124.078 203.101 123.934C202.843 123.79 202.553 123.721 202.26 123.734C202.006 123.721 201.752 123.777 201.525 123.897C201.297 124.017 201.104 124.196 200.963 124.418V123.85H200V128.455H200.973V125.921C200.952 125.763 200.965 125.603 201.011 125.452C201.057 125.3 201.134 125.161 201.238 125.044C201.341 124.927 201.468 124.835 201.61 124.775C201.752 124.715 201.904 124.689 202.057 124.697C202.696 124.697 203.02 125.131 203.02 125.911V128.474H203.993V125.921C203.973 125.764 203.987 125.604 204.033 125.452C204.079 125.301 204.156 125.162 204.26 125.046C204.363 124.929 204.49 124.837 204.631 124.777C204.772 124.717 204.924 124.69 205.077 124.697C205.735 124.697 206.05 125.131 206.05 125.911V128.474L207.022 128.455ZM221.414 123.85H219.83V122.453H218.857V123.85H217.977V124.765H218.876V126.884C218.876 127.954 219.274 128.589 220.414 128.589C220.84 128.591 221.257 128.467 221.618 128.233L221.34 127.376C221.082 127.536 220.789 127.625 220.488 127.636C220.025 127.636 219.849 127.327 219.849 126.865V124.765H221.424L221.414 123.85ZM229.632 123.734C229.397 123.727 229.165 123.786 228.959 123.904C228.754 124.023 228.583 124.197 228.465 124.408V123.85H227.51V128.455H228.474V125.873C228.474 125.112 228.789 124.688 229.4 124.688C229.606 124.685 229.811 124.724 230.002 124.803L230.299 123.84C230.079 123.758 229.847 123.716 229.613 123.715L229.632 123.734ZM217.208 124.216C216.663 123.879 216.036 123.711 215.402 123.734C214.281 123.734 213.549 124.293 213.549 125.208C213.549 125.959 214.086 126.422 215.078 126.566L215.541 126.634C216.069 126.711 216.319 126.855 216.319 127.116C216.319 127.472 215.967 127.674 215.309 127.674C214.78 127.69 214.261 127.521 213.836 127.193L213.373 127.973C213.934 128.38 214.606 128.59 215.291 128.57C216.569 128.57 217.31 127.944 217.31 127.067C217.31 126.191 216.727 125.834 215.763 125.69L215.3 125.622C214.883 125.564 214.55 125.478 214.55 125.17C214.55 124.861 214.865 124.63 215.393 124.63C215.881 124.636 216.359 124.772 216.782 125.025L217.208 124.216ZM243.014 123.734C242.779 123.727 242.547 123.786 242.341 123.904C242.136 124.023 241.965 124.197 241.847 124.408V123.85H240.893V128.455H241.856V125.873C241.856 125.112 242.171 124.688 242.783 124.688C242.989 124.685 243.193 124.724 243.385 124.803L243.681 123.84C243.461 123.758 243.229 123.716 242.996 123.715L243.014 123.734ZM230.6 126.143C230.589 126.466 230.642 126.789 230.757 127.089C230.873 127.39 231.047 127.663 231.27 127.889C231.492 128.116 231.757 128.292 232.049 128.406C232.34 128.52 232.651 128.569 232.962 128.551C233.541 128.582 234.109 128.386 234.556 128.002L234.093 127.193C233.76 127.457 233.353 127.602 232.935 127.607C232.578 127.577 232.246 127.409 232.004 127.135C231.762 126.862 231.627 126.504 231.627 126.133C231.627 125.761 231.762 125.403 232.004 125.13C232.246 124.857 232.578 124.689 232.935 124.659C233.353 124.664 233.76 124.809 234.093 125.073L234.556 124.264C234.109 123.88 233.541 123.684 232.962 123.715C232.651 123.696 232.34 123.746 232.049 123.86C231.757 123.974 231.492 124.15 231.27 124.376C231.047 124.603 230.873 124.875 230.757 125.176C230.642 125.477 230.589 125.8 230.6 126.123V126.143ZM239.623 126.143V123.85H238.66V124.408C238.496 124.19 238.285 124.014 238.043 123.897C237.802 123.78 237.537 123.724 237.27 123.734C236.656 123.734 236.067 123.988 235.633 124.439C235.198 124.891 234.954 125.504 234.954 126.143C234.954 126.781 235.198 127.394 235.633 127.846C236.067 128.297 236.656 128.551 237.27 128.551C237.537 128.561 237.802 128.505 238.043 128.388C238.285 128.271 238.496 128.096 238.66 127.877V128.435H239.623V126.143ZM236.038 126.143C236.054 125.871 236.145 125.611 236.301 125.393C236.457 125.175 236.67 125.01 236.916 124.917C237.161 124.824 237.427 124.807 237.681 124.869C237.935 124.932 238.167 125.07 238.346 125.267C238.526 125.464 238.646 125.711 238.692 125.979C238.738 126.246 238.708 126.521 238.606 126.771C238.503 127.021 238.333 127.234 238.115 127.384C237.898 127.534 237.643 127.615 237.381 127.616C237.198 127.619 237.016 127.582 236.847 127.508C236.678 127.433 236.526 127.324 236.4 127.185C236.274 127.047 236.176 126.883 236.114 126.703C236.052 126.524 236.026 126.333 236.038 126.143ZM224.411 123.734C223.797 123.743 223.211 124.005 222.783 124.463C222.355 124.921 222.119 125.537 222.128 126.176C222.136 126.815 222.389 127.424 222.829 127.869C223.27 128.315 223.862 128.56 224.476 128.551C225.143 128.587 225.798 128.363 226.315 127.925L225.852 127.183C225.486 127.488 225.033 127.658 224.564 127.665C224.246 127.693 223.929 127.591 223.682 127.381C223.434 127.17 223.276 126.868 223.24 126.537H226.528C226.528 126.412 226.528 126.287 226.528 126.152C226.528 124.707 225.667 123.744 224.425 123.744L224.411 123.734ZM224.411 124.63C224.556 124.627 224.699 124.653 224.833 124.708C224.968 124.762 225.09 124.843 225.195 124.947C225.299 125.051 225.382 125.175 225.44 125.312C225.498 125.45 225.529 125.598 225.532 125.748H223.216C223.233 125.438 223.366 125.148 223.586 124.939C223.805 124.73 224.095 124.619 224.393 124.63H224.411ZM248.55 126.152V122H247.623V124.408C247.46 124.19 247.248 124.014 247.007 123.897C246.765 123.78 246.5 123.724 246.234 123.734C245.619 123.734 245.03 123.988 244.596 124.439C244.161 124.891 243.917 125.504 243.917 126.143C243.917 126.781 244.161 127.394 244.596 127.846C245.03 128.297 245.619 128.551 246.234 128.551C246.5 128.561 246.765 128.505 247.007 128.388C247.248 128.271 247.46 128.096 247.623 127.877V128.435H248.55V126.152ZM250.157 127.785C250.217 127.784 250.277 127.796 250.333 127.819C250.386 127.841 250.435 127.874 250.477 127.915C250.517 127.957 250.55 128.006 250.574 128.06C250.597 128.116 250.609 128.177 250.609 128.238C250.609 128.299 250.597 128.36 250.574 128.416C250.55 128.47 250.517 128.519 250.477 128.561C250.435 128.602 250.386 128.634 250.333 128.657C250.278 128.682 250.218 128.695 250.157 128.695C250.069 128.695 249.983 128.668 249.91 128.619C249.836 128.569 249.777 128.499 249.74 128.416C249.717 128.36 249.705 128.299 249.705 128.238C249.705 128.177 249.717 128.116 249.74 128.06C249.764 128.006 249.797 127.957 249.837 127.915C249.879 127.874 249.928 127.841 249.981 127.819C250.041 127.794 250.106 127.782 250.171 127.785H250.157ZM250.157 128.599C250.203 128.599 250.249 128.59 250.291 128.57C250.331 128.552 250.367 128.526 250.398 128.493C250.456 128.427 250.488 128.341 250.488 128.252C250.488 128.163 250.456 128.077 250.398 128.011C250.367 127.979 250.331 127.953 250.291 127.934C250.249 127.915 250.203 127.905 250.157 127.905C250.111 127.906 250.065 127.916 250.023 127.934C249.981 127.952 249.943 127.978 249.911 128.011C249.854 128.077 249.821 128.163 249.821 128.252C249.821 128.341 249.854 128.427 249.911 128.493C249.943 128.526 249.981 128.552 250.023 128.57C250.069 128.591 250.12 128.601 250.171 128.599H250.157ZM250.185 128.026C250.228 128.024 250.271 128.037 250.305 128.064C250.319 128.077 250.331 128.092 250.338 128.11C250.345 128.127 250.348 128.147 250.347 128.166C250.348 128.182 250.345 128.198 250.339 128.212C250.334 128.227 250.325 128.241 250.314 128.252C250.288 128.278 250.253 128.293 250.217 128.296L250.351 128.455H250.245L250.12 128.296H250.078V128.455H249.99V128.031L250.185 128.026ZM250.083 128.108V128.223H250.185C250.203 128.229 250.222 128.229 250.24 128.223C250.244 128.217 250.245 128.209 250.245 128.202C250.245 128.194 250.244 128.187 250.24 128.18C250.244 128.173 250.245 128.166 250.245 128.158C250.245 128.151 250.244 128.143 250.24 128.137C250.222 128.131 250.203 128.131 250.185 128.137L250.083 128.108ZM244.987 126.152C245.003 125.881 245.094 125.621 245.25 125.403C245.406 125.185 245.62 125.019 245.865 124.926C246.11 124.833 246.376 124.817 246.631 124.879C246.885 124.941 247.116 125.079 247.295 125.276C247.475 125.474 247.595 125.721 247.641 125.988C247.688 126.255 247.658 126.531 247.555 126.781C247.452 127.03 247.282 127.243 247.064 127.394C246.847 127.544 246.592 127.625 246.331 127.626C246.147 127.629 245.965 127.591 245.797 127.517C245.628 127.443 245.475 127.333 245.349 127.195C245.223 127.056 245.126 126.892 245.063 126.713C245.001 126.533 244.975 126.342 244.987 126.152ZM212.456 126.152V123.85H211.492V124.408C211.329 124.19 211.117 124.014 210.876 123.897C210.634 123.78 210.369 123.724 210.103 123.734C209.488 123.734 208.899 123.988 208.465 124.439C208.031 124.891 207.787 125.504 207.787 126.143C207.787 126.781 208.031 127.394 208.465 127.846C208.899 128.297 209.488 128.551 210.103 128.551C210.369 128.561 210.634 128.505 210.876 128.388C211.117 128.271 211.329 128.096 211.492 127.877V128.435H212.456V126.152ZM208.871 126.152C208.886 125.881 208.977 125.621 209.133 125.403C209.289 125.185 209.503 125.019 209.748 124.926C209.993 124.833 210.26 124.817 210.514 124.879C210.768 124.941 210.999 125.079 211.179 125.276C211.358 125.474 211.478 125.721 211.525 125.988C211.571 126.255 211.541 126.531 211.438 126.781C211.336 127.03 211.165 127.243 210.948 127.394C210.73 127.544 210.475 127.625 210.214 127.626C210.03 127.63 209.847 127.594 209.677 127.52C209.507 127.447 209.353 127.337 209.226 127.198C209.099 127.06 209.001 126.895 208.938 126.715C208.875 126.535 208.849 126.343 208.861 126.152H208.871Z" fill="black"/>
<path d="M231.296 82.0066H216.705V109.275H231.296V82.0066Z" fill="#FF5F00"/>
<path d="M217.631 95.6429C217.628 93.0163 218.2 90.4236 219.304 88.061C220.407 85.6984 222.013 83.6279 224 82.0063C221.54 79.9958 218.586 78.7456 215.475 78.3986C212.364 78.0516 209.221 78.6217 206.407 80.0438C203.593 81.466 201.22 83.6827 199.56 86.4408C197.901 89.1988 197.02 92.3868 197.02 95.6404C197.02 98.8941 197.901 102.082 199.56 104.84C201.22 107.598 203.593 109.815 206.407 111.237C209.221 112.659 212.364 113.229 215.475 112.882C218.586 112.535 221.54 111.285 224 109.275C222.014 107.653 220.408 105.584 219.305 103.222C218.201 100.86 217.629 98.2686 217.631 95.6429Z" fill="#EB001B"/>
<path d="M250.982 95.6431C250.982 98.897 250.102 102.085 248.441 104.843C246.781 107.601 244.408 109.818 241.594 111.24C238.779 112.662 235.637 113.232 232.526 112.884C229.414 112.537 226.46 111.286 224 109.275C225.985 107.652 227.591 105.582 228.694 103.22C229.798 100.858 230.372 98.2667 230.372 95.6407C230.372 93.0148 229.798 90.4231 228.694 88.0613C227.591 85.6995 225.985 83.6292 224 82.0066C226.46 79.9955 229.414 78.7447 232.526 78.3972C235.637 78.0496 238.779 78.6194 241.594 80.0413C244.408 81.4633 246.781 83.68 248.441 86.4381C250.102 89.1962 250.982 92.3844 250.982 95.6383V95.6431Z" fill="#F79E1B"/>
<path d="M249.389 106.385V105.826H249.607V105.71H249.055V105.826H249.292V106.385H249.389ZM250.459 106.385V105.71H250.292L250.098 106.192L249.903 105.71H249.755V106.385H249.875V105.879L250.056 106.317H250.181L250.362 105.879V106.39L250.459 106.385Z" fill="#F79E1B"/>
<path d="M326.112 108.43H309.888V80.7617H326.112V108.43Z" fill="#6C6BBD"/>
<path d="M310.918 94.5967C310.918 88.984 313.687 83.9843 317.999 80.7624C314.846 78.4063 310.866 77 306.541 77C296.301 77 288 84.8782 288 94.5967C288 104.315 296.301 112.193 306.541 112.193C310.866 112.193 314.846 110.787 317.999 108.431C313.687 105.209 310.918 100.209 310.918 94.5967Z" fill="#D32011"/>
<path d="M348 94.5967C348 104.315 339.699 112.193 329.459 112.193C325.134 112.193 321.154 110.787 317.999 108.431C322.313 105.209 325.082 100.209 325.082 94.5967C325.082 88.984 322.313 83.9843 317.999 80.7624C321.154 78.4063 325.134 77 329.459 77C339.699 77 348 84.8782 348 94.5967Z" fill="#0099DF"/>
<path d="M331.459 123.542C331.675 123.542 331.985 123.582 332.222 123.67L331.892 124.628C331.665 124.539 331.439 124.51 331.222 124.51C330.522 124.51 330.172 124.94 330.172 125.712V128.332H329.1V123.66H330.161V124.227C330.439 123.816 330.841 123.542 331.459 123.542ZM327.5 124.588H325.749V126.699C325.749 127.168 325.924 127.481 326.46 127.481C326.739 127.481 327.089 127.393 327.407 127.217L327.716 128.087C327.376 128.312 326.841 128.449 326.378 128.449C325.111 128.449 324.668 127.804 324.668 126.718V124.588H323.669V123.66H324.668V122.242H325.749V123.66H327.5V124.588ZM313.791 125.585C313.905 124.911 314.337 124.451 315.099 124.451C315.789 124.451 316.232 124.861 316.345 125.585H313.791ZM317.458 125.996C317.448 124.539 316.5 123.542 315.119 123.542C313.678 123.542 312.668 124.539 312.668 125.996C312.668 127.48 313.719 128.448 315.192 128.448C315.934 128.448 316.613 128.272 317.211 127.794L316.685 127.041C316.273 127.354 315.748 127.53 315.254 127.53C314.564 127.53 313.936 127.226 313.781 126.386H317.437C317.448 126.259 317.458 126.132 317.458 125.996ZM322.164 124.852C321.866 124.676 321.259 124.451 320.631 124.451C320.044 124.451 319.693 124.657 319.693 124.999C319.693 125.311 320.064 125.399 320.527 125.458L321.032 125.526C322.103 125.674 322.752 126.103 322.752 126.924C322.752 127.814 321.927 128.449 320.507 128.449C319.703 128.449 318.961 128.253 318.374 127.843L318.879 127.051C319.24 127.315 319.776 127.54 320.518 127.54C321.248 127.54 321.64 127.335 321.64 126.972C321.64 126.71 321.362 126.562 320.775 126.485L320.27 126.416C319.168 126.269 318.57 125.8 318.57 125.038C318.57 124.11 319.374 123.542 320.62 123.542C321.403 123.542 322.114 123.709 322.628 124.031L322.164 124.852ZM335.374 124.508C335.154 124.508 334.95 124.545 334.76 124.617C334.571 124.691 334.407 124.794 334.269 124.926C334.131 125.058 334.023 125.217 333.944 125.402C333.865 125.586 333.826 125.79 333.826 126.011C333.826 126.234 333.865 126.437 333.944 126.621C334.023 126.806 334.131 126.965 334.269 127.097C334.407 127.229 334.571 127.332 334.76 127.405C334.95 127.479 335.154 127.515 335.374 127.515C335.594 127.515 335.8 127.479 335.988 127.405C336.178 127.332 336.343 127.229 336.481 127.097C336.621 126.965 336.73 126.806 336.81 126.621C336.889 126.437 336.928 126.234 336.928 126.011C336.928 125.79 336.889 125.586 336.81 125.402C336.73 125.217 336.621 125.058 336.481 124.926C336.343 124.794 336.178 124.691 335.988 124.617C335.8 124.545 335.594 124.508 335.374 124.508ZM335.374 123.542C335.756 123.542 336.11 123.605 336.435 123.731C336.76 123.857 337.042 124.03 337.279 124.251C337.517 124.471 337.702 124.732 337.837 125.031C337.971 125.332 338.038 125.659 338.038 126.011C338.038 126.364 337.971 126.69 337.837 126.991C337.702 127.291 337.517 127.553 337.279 127.773C337.042 127.994 336.76 128.166 336.435 128.293C336.11 128.418 335.756 128.48 335.374 128.48C334.992 128.48 334.638 128.418 334.313 128.293C333.988 128.166 333.708 127.994 333.472 127.773C333.237 127.553 333.052 127.291 332.917 126.991C332.783 126.69 332.716 126.364 332.716 126.011C332.716 125.659 332.783 125.332 332.917 125.031C333.052 124.732 333.237 124.471 333.472 124.251C333.708 124.03 333.988 123.857 334.313 123.731C334.638 123.605 334.992 123.542 335.374 123.542ZM307.533 125.996C307.533 125.175 308.1 124.5 309.027 124.5C309.912 124.5 310.51 125.146 310.51 125.996C310.51 126.846 309.912 127.49 309.027 127.49C308.1 127.49 307.533 126.817 307.533 125.996ZM311.519 125.996V123.66H310.449V124.227C310.108 123.806 309.594 123.542 308.894 123.542C307.513 123.542 306.432 124.568 306.432 125.996C306.432 127.422 307.513 128.449 308.894 128.449C309.594 128.449 310.108 128.185 310.449 127.764V128.332H311.519V125.996ZM305.484 128.332V125.399C305.484 124.295 304.743 123.552 303.548 123.542C302.92 123.532 302.27 123.718 301.818 124.374C301.478 123.856 300.942 123.542 300.19 123.542C299.665 123.542 299.15 123.689 298.748 124.236V123.66H297.677V128.332H298.759V125.742C298.759 124.931 299.232 124.5 299.963 124.5C300.674 124.5 301.035 124.94 301.035 125.732V128.332H302.116V125.742C302.116 124.931 302.611 124.5 303.321 124.5C304.053 124.5 304.403 124.94 304.403 125.732V128.332H305.484Z" fill="black"/>
<path d="M254.276 31.3762C253.879 30.2506 253.332 29.1812 252.645 28.1878L253.96 26.9381C254.308 26.608 254.308 26.0734 253.96 25.7439L251.07 22.9988C250.723 22.6695 250.16 22.6689 249.812 22.9985L245.301 27.2755H235.404C234.913 27.2755 234.514 27.6539 234.514 28.1202C234.514 28.5866 234.913 28.9647 235.404 28.9647H245.669C245.904 28.9647 246.13 28.8761 246.297 28.7178L250.44 24.79L252.074 26.3407L250.861 27.4926C250.55 27.7876 250.513 28.2535 250.773 28.5901C251.559 29.606 252.17 30.7234 252.588 31.9122C253.022 33.1418 253.242 34.4281 253.242 35.7344C253.242 37.052 253.018 38.3481 252.579 39.5872C252.429 40.009 252.252 40.4284 252.053 40.8326C251.845 41.2554 252.038 41.7578 252.482 41.9556C252.604 42.0097 252.732 42.035 252.858 42.035C253.193 42.035 253.514 41.8547 253.665 41.5479C253.892 41.0863 254.094 40.6079 254.264 40.1263C254.766 38.7136 255.021 37.2361 255.021 35.7344C255.021 34.2453 254.77 32.779 254.276 31.3762Z" fill="black"/>
<path d="M270.828 29.2586C270.766 29.1124 270.617 29.0162 270.45 29.0162H269.052C268.886 29.0162 268.737 29.1124 268.675 29.2586L263.299 42.0163C263.249 42.135 263.264 42.2696 263.34 42.3757C263.415 42.4816 263.541 42.545 263.676 42.545H264.976C265.143 42.545 265.292 42.4479 265.354 42.3006L266.552 39.408H272.951L274.149 42.3006C274.21 42.4479 274.36 42.545 274.527 42.545H275.827C275.962 42.545 276.088 42.4816 276.163 42.3757C276.239 42.2696 276.254 42.135 276.204 42.0163L270.828 29.2586ZM267.247 37.6425L269.76 31.6184L272.257 37.6425H267.247ZM289.498 29.0162H288.198C288.03 29.0162 287.881 29.1134 287.82 29.261L283.431 39.8816L279.024 29.2607C278.963 29.1131 278.813 29.0162 278.646 29.0162H277.346C277.212 29.0162 277.086 29.0797 277.01 29.1857C276.934 29.2917 276.919 29.4264 276.969 29.545L282.346 42.3027C282.407 42.4489 282.557 42.545 282.723 42.545H284.121C284.287 42.545 284.436 42.4489 284.498 42.3027L289.874 29.545C289.925 29.4264 289.909 29.2917 289.834 29.1857C289.758 29.0797 289.632 29.0162 289.498 29.0162ZM313.997 37.1185C316.295 36.7299 317.333 34.9033 317.333 33.1317C317.333 30.7086 315.522 29.0162 312.93 29.0162H308.026C307.802 29.0162 307.62 29.1891 307.62 29.4019V42.1596C307.62 42.3726 307.802 42.545 308.026 42.545H309.148C309.372 42.545 309.554 42.3726 309.554 42.1596V37.2661H311.825L315.387 42.3726C315.463 42.4803 315.59 42.545 315.726 42.545H317.085C317.235 42.545 317.373 42.4666 317.443 42.3405C317.514 42.2147 317.505 42.0624 317.421 41.9441L313.997 37.1185ZM309.554 35.5003V30.7822H312.831C314.331 30.7822 315.34 31.7264 315.34 33.1317C315.34 34.5485 314.331 35.5003 312.831 35.5003H309.554ZM326.846 29.0162H322.651C322.427 29.0162 322.245 29.1891 322.245 29.4019V42.1596C322.245 42.3726 322.427 42.545 322.651 42.545H326.846C330.927 42.545 333.889 39.7043 333.889 35.7901C333.889 31.8652 330.927 29.0162 326.846 29.0162ZM326.846 40.7795H324.18V30.7822H326.846C330.335 30.7822 331.896 33.2973 331.896 35.7901C331.896 38.7746 329.867 40.7795 326.846 40.7795ZM298.169 29.2586C298.107 29.1124 297.958 29.0162 297.791 29.0162H296.393C296.227 29.0162 296.078 29.1124 296.016 29.2586L290.64 42.0163C290.59 42.135 290.605 42.2696 290.68 42.3757C290.756 42.4816 290.882 42.545 291.017 42.545H292.317C292.483 42.545 292.633 42.4479 292.694 42.3006L293.893 39.408H300.292L301.49 42.3006C301.551 42.4479 301.701 42.545 301.868 42.545H303.168C303.303 42.545 303.428 42.4816 303.504 42.3757C303.579 42.2696 303.595 42.135 303.545 42.0163L298.169 29.2586ZM294.588 37.6425L297.101 31.6184L299.598 37.6425H294.588ZM348.971 42.0163L343.595 29.2586C343.533 29.1124 343.384 29.0162 343.218 29.0162H341.819C341.653 29.0162 341.504 29.1124 341.442 29.2586L336.066 42.0163C336.016 42.135 336.031 42.2696 336.107 42.3757C336.182 42.4816 336.308 42.545 336.443 42.545H337.743C337.909 42.545 338.059 42.4479 338.121 42.3006L339.319 39.408H345.718L346.916 42.3006C346.977 42.4479 347.128 42.545 347.293 42.545H348.594C348.729 42.545 348.855 42.4816 348.931 42.3757C349.006 42.2696 349.021 42.135 348.971 42.0163ZM340.014 37.6425L342.527 31.6184L345.024 37.6425H340.014Z" fill="black"/>
<path d="M231.314 31.0075C230.465 32.4672 230.019 34.1049 230.019 35.7843C230.019 37.6623 230.578 39.4919 231.635 41.0747C231.804 41.3284 232.092 41.4674 232.387 41.4674C232.55 41.4674 232.715 41.4249 232.862 41.3359C233.277 41.0863 233.4 40.5644 233.137 40.1704C232.262 38.8581 231.798 37.3419 231.798 35.7843C231.798 34.2007 232.276 32.6619 233.18 31.3348C233.408 31.0007 233.359 30.5609 233.063 30.2797L228.926 26.3456L230.559 24.7949L231.772 25.9464C232.083 26.2412 232.573 26.2768 232.928 26.0299C233.998 25.2829 235.176 24.7028 236.427 24.3059C239.027 23.4803 241.911 23.4836 244.51 24.3155C244.954 24.4573 245.395 24.625 245.822 24.8146C246.268 25.0119 246.797 24.8292 247.005 24.4062C247.213 23.9835 247.02 23.4809 246.575 23.2839C246.088 23.0678 245.584 22.8766 245.078 22.7146C242.113 21.7655 238.828 21.7617 235.863 22.704C234.678 23.0801 233.551 23.5997 232.504 24.2531L231.188 23.0031C230.854 22.6863 230.263 22.6867 229.93 23.0031L227.04 25.748C226.692 26.0773 226.692 26.6119 227.039 26.9418L231.314 31.0075Z" fill="black"/>
<path d="M245.617 44.1858C246.108 44.1858 246.506 43.8078 246.506 43.3414C246.506 42.875 246.108 42.4967 245.617 42.4967H235.352C235.116 42.4967 234.89 42.5857 234.724 42.7438L230.58 46.6714L228.947 45.1209L230.16 43.969C230.471 43.6742 230.508 43.2081 230.248 42.8719C229.461 41.8558 228.85 40.7382 228.432 39.5498C227.998 38.3198 227.779 37.0337 227.779 35.727C227.779 34.4094 228.002 33.1132 228.442 31.8747C228.592 31.4513 228.769 31.032 228.967 30.6284C229.176 30.206 228.983 29.7032 228.538 29.5061C228.093 29.3088 227.563 29.4914 227.356 29.9139C227.129 30.374 226.927 30.852 226.756 31.3351C226.254 32.7478 226 34.2256 226 35.727C226 37.216 226.25 38.6822 226.745 40.0854C227.141 41.2108 227.688 42.2805 228.376 43.2738L227.06 44.5237C226.893 44.6822 226.799 44.8969 226.799 45.1209C226.799 45.3452 226.893 45.56 227.06 45.7182L229.95 48.4624C230.124 48.6274 230.352 48.71 230.579 48.71C230.807 48.71 231.035 48.6274 231.208 48.4632L235.72 44.1858H245.617Z" fill="black"/>
<path d="M249.706 40.4542C250.555 38.995 251.001 37.3574 251.001 35.677C251.001 33.7991 250.442 31.9697 249.385 30.3869C249.122 29.9928 248.572 29.8756 248.158 30.1254C247.743 30.3753 247.62 30.8972 247.883 31.2909C248.759 32.6031 249.222 34.1198 249.222 35.677C249.222 37.2612 248.744 38.8001 247.84 40.1266C247.612 40.4606 247.661 40.9004 247.957 41.182L252.094 45.1164L250.461 46.6672L249.248 45.5155C248.938 45.2207 248.447 45.1846 248.093 45.4321C247.022 46.1783 245.845 46.7586 244.593 47.1561C241.992 47.9817 239.109 47.9775 236.51 47.1461C236.066 47.0043 235.625 46.8362 235.198 46.6471C234.752 46.4501 234.223 46.6327 234.015 47.0552C233.808 47.4779 234 47.9806 234.445 48.1777C234.932 48.3935 235.436 48.5851 235.942 48.747C237.43 49.2233 238.987 49.4646 240.568 49.4646C242.136 49.4646 243.68 49.227 245.158 48.758C246.343 48.3813 247.469 47.8617 248.516 47.2089L249.833 48.4586C250.18 48.7886 250.743 48.7886 251.09 48.4586L253.981 45.7137C254.328 45.3843 254.328 44.8498 253.981 44.5202L249.706 40.4542Z" fill="black"/>
<defs>
<clipPath id="clip0">
<rect width="42" height="51" fill="white" transform="translate(38 81)"/>
</clipPath>
<clipPath id="clip1">
<rect width="60" height="56" fill="white" transform="translate(105 76)"/>
</clipPath>
</defs>
</svg>
