<svg xmlns="http://www.w3.org/2000/svg" viewBox="0 0 107.7 107.7" xmlns:v="https://vecta.io/nano"><path d="M0,53.9C0,24.1,24.1,0,53.9,0s53.9,24.1,53.9,53.9c0,29.7-24.1,53.9-53.9,53.9C24.1,107.7,0,83.6,0,53.9z" fill="#ffd646"/><path d="M29.8 15.5l5.2 7.7-2.2 1.5-5.2-7.7-2.6 1.7-1.3-2 7.3-4.9 1.4 1.9-2.6 1.8zM44.6 14l4 3.9-2.9.9-3.2-3.6-1.6.5 1.2 4.2-2.5.7-3.3-11.3 4.1-1.2c2.8-.8 4.5-.1 5.2 2.2.5 1.7.1 3-1 3.7zM41 10.2l-1.6.5.9 3 1.6-.5c1.1-.3 1.5-.8 1.1-2-.3-1.1-.8-1.3-2-1zm10.6-4l2 4.4.5 1.1h0l.4-1.2 1.8-4.4h2.9l-3.8 8 .1 3.7h-2.7l-.1-3.7-4.2-7.9h3.1zM68.1 20c-.9.1-2.3 0-3.5-.3-3.8-1.1-4.8-3.5-3.7-7.3C62 8.5 64.2 7.1 68 8.1c1 .3 2.1.9 2.9 1.4l-.9 2.1c-.7-.5-1.7-1-2.6-1.2-2.2-.6-3.1 0-3.9 2.7-.8 2.8-.4 3.8 1.6 4.3.4.1.9.2 1.2.2l1.1-3.8 2.2.6-1.5 5.6zm9.2 5.6c-1-.1-2.2-.7-3.3-1.3-3.3-2.2-3.5-4.7-1.4-8.1 2.2-3.4 4.7-4.2 8-2 .9.6 1.8 1.4 2.4 2.2l-1.4 1.8c-.5-.7-1.3-1.4-2.1-2-1.9-1.2-3-.9-4.6 1.5s-1.4 3.5.3 4.6l1.1.5 2.2-3.3 1.9 1.3-3.1 4.8zM18.7 83.5l-1.9 1.3-4.5-6.5 9.6-6.7 4.4 6.3-1.9 1.4-2.9-4.2-1.9 1.3 2.5 3.5-1.7 1.2-2.5-3.5-2.2 1.5 3 4.4zm8.7 2.9l-1.2 1.3-3.3-3 1.2-1.3 3.3 3zm6 11l2.2-4.2-3.6-1.9-2.2 4.2-2.3-1.2L32.9 84l2.3 1.2-2.1 4 3.6 1.9 2.1-4 2.3 1.2-5.4 10.3-2.3-1.2zm14.4 1.9l-4.2-.7-1 2.1-2.7-.5 6-10.8 3.1.6 2 12.2-2.9-.5-.3-2.4zm-1.3-6.5l-1.8 3.7 2.9.5-.4-4.1-.1-1.3h0l-.6 1.2zm16.7 8.3l-5.3-5.7-.9-.9h0l.2 1.2.8 6.1-2.3.3-1.6-11.6 2.2-.3 4.9 5.4.8.9h0l-.2-1.2-.8-5.7 2.3-.3 1.6 11.6-1.7.2zm11.4-3.9l-4 1.9-5.1-10.5 3.9-1.9c3.3-1.6 5.5-.7 7.2 2.9 2 3.9 1.1 6.1-2 7.6zm-4.1-8.3l-1.5.7 3 6.3 1.6-.7c1.6-.8 2-1.6.7-4.3-1.3-2.5-2.2-2.8-3.8-2zm17.4-4.1l1.5 1.7-5.9 5.3-7.8-8.6 5.7-5.2 1.6 1.7-3.8 3.4 1.6 1.7 3.2-2.9 1.4 1.5-3.2 2.9 1.8 2 3.9-3.5zm6.7-9.8l2 1.3-4 6.2-9.8-6.3 1.4-2.2 7.8 5 2.6-4z"/><path d="M98.6 32.7l-5.6.8-2.5-5.1-1 5.6-5.6.8 5 2.6-.9 5.7 4.1-4 5 2.6-2.5-5.1 4-3.9zm4.9 24.7l-5.3-2.1.3-5.7-3.5 4.5-5.3-2.1 3.1 4.8-3.6 4.4 5.5-1.4 3.1 4.8.3-5.7 5.4-1.5zM9.3 32.7l5.6.8 2.5-5.1.9 5.6 5.6.8-5 2.6.9 5.6-4.1-4-5 2.6 2.5-5.1-3.9-3.8zM4.2 57.4l5.3-2.1-.3-5.7 3.6 4.4 5.2-2-3 4.8 3.6 4.4-5.5-1.4-3.1 4.7-.3-5.7-5.5-1.4z" fill="#efac01"/><path d="M53.9 84.4c16.9 0 30.5-13.7 30.5-30.5 0-16.9-13.7-30.5-30.5-30.5S23.3 37 23.3 53.9c0 16.8 13.7 30.5 30.6 30.5z" fill="#009ee2"/><g fill="#fff"><path d="M70 74.7H37.8c-1.4 0-2.5-1.1-2.5-2.5v-23c0-1.4 1.1-2.5 2.5-2.5H70c1.4 0 2.5 1.1 2.5 2.5v23c0 1.4-1.1 2.5-2.5 2.5z"/><path d="M53.9 32.5c4.7 0 8.5 3.8 8.5 8.5v9.2c0 4.7-3.8 8.5-8.5 8.5s-8.5-3.8-8.5-8.5V41c0-4.7 3.8-8.5 8.5-8.5zm0-5.3C46.2 27.2 40 33.4 40 41v9.2C40 57.9 46.2 64 53.9 64s13.8-6.2 13.8-13.8V41c0-7.6-6.2-13.8-13.8-13.8z"/></g><path d="M57.1 57.6a3.32 3.32 0 0 1-1.3 2.6V66c0 1.1-.9 2-2 2s-2-.9-2-2v-5.8a3.17 3.17 0 0 1-1.3-2.6c0-1.8 1.4-3.2 3.2-3.2 1.9 0 3.4 1.5 3.4 3.2z" fill="#009ee2"/></svg>