<?xml version="1.0" encoding="UTF-8"?><svg version="1.1" width="232px" height="130px" viewBox="0 0 232.0 130.0" xmlns="http://www.w3.org/2000/svg" xmlns:xlink="http://www.w3.org/1999/xlink"><defs><clipPath id="i0"><path d="M23.7801607,0 L32.3808836,0.150175688 L32.3183329,3.83343204 C46.4468607,6.37555207 56.2661267,19.4730918 54.8674909,33.9108829 C53.468855,48.3486741 41.3226338,59.2717496 26.9746667,58.994851 C12.6266996,58.7179524 0.901748628,47.3341918 0.0492559824,32.8529566 C-0.803236663,18.3717214 9.50339498,5.66258741 23.71761,3.66744839 L23.7801607,0 Z M35.7894267,11.9338241 C28.0851806,8.5457885 19.1205241,10.1842535 13.0775778,16.0848554 C7.03463149,21.9854574 5.10412674,30.9855131 8.18666732,38.8863879 C11.2692079,46.7872626 18.7573951,52.0321299 27.1578992,52.1741957 C38.6157276,52.3679657 48.0632696,43.1429649 48.2687645,31.5606065 C48.4194266,23.0688012 43.4936728,15.3218598 35.7894267,11.9338241 Z"></path></clipPath><clipPath id="i1"><path d="M0,0 C0,0 8.43252023,2.11105692 17.0709534,4.36046607 L18.0681414,4.62051503 C25.7130787,6.61720997 33.2715487,8.66279749 35.0486758,9.39167116 C36.6205448,9.97756376 37.7364507,11.3445274 37.9593682,12.9572143 C38.1822858,14.5699013 37.4767343,16.171628 36.1190308,17.1351058 C34.7613273,18.0985836 32.9675709,18.2704604 31.4402554,17.5834237 C30.5871387,17.233832 24.1351754,13.6382295 17.2960834,9.78881829 L16.3823679,9.27432209 L15.4668096,8.75839394 L14.5521535,8.24260996 C7.09362019,4.03525343 0,0 0,0 Z"></path></clipPath><clipPath id="i2"><path d="M14.4287251,0 L14.4287251,6.82386397 L0,6.82386397 L0,0 L14.4287251,0 Z"></path></clipPath><clipPath id="i3"><path d="M61,0 L52.4479302,63.8094674 C49.271674,88.3127446 38.9488414,99.8269977 16.3736006,103.912192 C10.1799011,105.032071 3.17625618,105.315984 0,104.629861 L3.43035668,89.6928776 C6.74160375,90.0793149 12.8241343,89.6928776 17.7235095,88.7938195 C27.0140588,87.1140004 35.9313981,79.7243735 37.6862796,65.4183083 L47.0244728,2.5315584 L61,0 Z"></path></clipPath><clipPath id="i4"><path d="M46.9314491,14.8303076 C47.96991,30.8202423 37.1132733,44.6343561 20.9305909,47.5615394 C9.12989887,49.6982267 0.759274644,43.8908202 0.0591002496,33.0821566 C-0.916710387,17.1914101 10.294092,3.12004798 26.0678255,0.43701847 C38.5372234,-1.81706923 46.2942117,4.89823371 46.9314491,14.8303076 Z M24.927092,10.5021462 C16.9891598,11.9422578 13.6928331,23.4709771 14.2671335,30.2410669 C14.5975528,35.3362443 17.4769217,38.2477743 22.2365342,37.386838 C29.7575086,36.0249934 33.2505134,24.9893557 32.79422,17.4835567 C32.5346048,13.468463 30.4340816,9.50032943 24.927092,10.5021462 Z"></path></clipPath><clipPath id="i5"><path d="M46,0 L41.894863,30.9030769 C41.1054136,36.7102604 40.7422668,41.6155107 40.3159642,45.7137682 L28.1979155,47.9132191 L28.5926402,40.5316086 L28.4031724,40.5316086 C23.9980446,47.1853433 18.4245317,50.6664887 12.7878628,51.6950089 C5.34335474,53.0558203 0.59876371,49.8990543 0.0540436082,41.4968353 C-0.0904755687,38.7227746 0.0550492165,35.941173 0.488240791,33.1974682 L3.78024488,7.65060814 L17.5324538,5.19007129 L14.3746561,29.7163228 C14.1040176,31.671252 14.0036421,33.6460758 14.0746654,35.6184466 C14.2562387,38.5062149 15.5509358,40.5553437 19.0876692,39.9144965 C23.7691043,39.0600335 28.1979155,32.8572654 29.4452456,23.6717886 L32.2398966,2.51591871 L46,0 Z"></path></clipPath><clipPath id="i6"><path d="M34,0 L32.1146617,13.2028143 C31.3661065,13.2613584 30.6217953,13.3649432 29.8858083,13.5130009 C20.9943609,15.1037014 17.3195489,23.3276231 16.137218,32.3548486 L13.9243421,49.4548792 L0,52 L3.61090226,24.6160905 C4.52960526,17.6488223 4.63345865,10.1009483 4.86513158,6.19577853 L16.9520677,4.00856531 C16.856203,7.05475681 16.7603383,10.1089018 16.6644737,13.2425818 L16.9600564,13.1948608 C19.8599624,6.69684919 24.9088346,1.55888651 31.3796992,0.381768125 C32.2504699,0.222698073 33.1212406,0.0715815234 34,0 Z"></path></clipPath><clipPath id="i7"><path d="M32,0 L30.9209026,8.2617001 L14.1472849,11.3180516 L12.8936276,20.9885387 L28.7627077,18.0913722 L27.7470865,26.1779688 L11.8780064,29.0751353 L10.505331,40.0111429 L28.2787007,36.7637695 L27.2868832,45.0175103 L0,50 L5.64145797,4.77554919 L32,0 Z"></path></clipPath><clipPath id="i8"><path d="M15,0 L9.17304747,47.2782076 L0,49 L5.81163859,1.72179239 L15,0 Z"></path></clipPath><clipPath id="i9"><path d="M14,0 L9.77635411,32.2843318 L0,34 L4.22364589,1.7078341 L14,0 Z"></path></clipPath><clipPath id="i10"><path d="M9.98759183,3.75482177 C10.1941316,6.99503505 7.79509307,9.3413964 4.81615453,9.90803468 C2.25029547,10.3789031 0.20078576,9.02216356 0.00218985796,6.284742 C-0.0782386627,3.25346246 2.06524363,0.621076077 5.03858194,0.0996058037 C7.75537389,-0.403185913 9.8048836,1.02538103 9.98759183,3.75482177 Z"></path></clipPath><clipPath id="i11"><path d="M15.3133159,0 L14.2245431,9.01570733 L21,7.78238979 L20.0835509,14.9637324 L13.3002611,16.1892442 L11.8276762,27.1173742 C11.6219739,28.4523703 11.532867,29.8026323 11.5613577,31.1529766 C11.6631854,32.714138 12.3446475,33.6430291 14.4046997,33.2761561 C15.284485,33.1361813 16.1534258,32.9353469 17.0052219,32.675109 L16.3550914,40.0594026 C14.6169755,40.881179 12.7710498,41.4540647 10.8720627,41.7610686 C5.26370757,42.7758235 2.40469974,40.4653046 2.154047,36.5936242 C2.05618059,34.622102 2.15061836,32.6457679 2.43603133,30.6924339 L4.04177546,17.8596869 L0,18.5934328 L0.908616188,11.458925 L5.02088773,10.7173733 L5.89817232,3.93412683 L15.3133159,0 Z"></path></clipPath><clipPath id="i12"><path d="M28.9756022,7.55342083 C29.4910555,15.5236047 21.8061155,19.8296962 9.04474166,21.8339861 C9.12323055,22.9331465 9.53467717,23.9820679 10.2240363,24.8404209 C11.5595289,26.2105409 13.7541104,26.6489793 16.471955,26.1479068 C19.6215504,25.5830479 22.616018,24.3556083 25.2580906,22.5464485 L26.382716,29.0603905 C22.8337734,31.3789814 18.8456113,32.9382201 14.6678685,33.640506 C5.56152701,35.3003085 0.563192079,31.1194852 0.0399288912,23.0240332 C-0.569243178,13.5271441 5.81925365,2.37045253 17.3310438,0.272211586 C23.7664,-0.902177002 28.608537,1.75977046 28.9756022,7.55342083 Z M16.6281529,7.17761649 C12.2702297,7.96054221 10.020979,11.9221464 9.56019495,15.0068737 C16.8468301,13.7385341 20.4237635,12.0552438 20.2441359,9.25236966 C20.1426072,7.63171341 18.7680651,6.78615362 16.6281529,7.17761649 Z"></path></clipPath><clipPath id="i13"><path d="M31.9780039,7.28132491 C32.0375028,9.09866369 31.9762617,10.9179267 31.7946804,12.7272384 L29.4035036,31.7047013 L19.8387965,33.4328077 L22.0944733,15.3352523 C22.2301483,14.1379186 22.2621483,12.9312063 22.1901204,11.7284246 C22.0546203,9.53261958 21.1539438,8.12952396 18.7707376,8.55758703 C15.6462666,9.1204107 12.242825,13.5912917 11.3660602,20.8049471 L9.55673646,35.2956748 L0,37 L2.7339121,14.9626789 C3.27591217,10.8168088 3.57879456,7.23376235 3.79400046,4.38793563 L12.2906486,2.85007941 L11.9638544,8.2008678 L12.0993544,8.2008678 C14.8810901,3.5159553 18.8105905,0.979285247 23.1226793,0.194502949 C28.4390623,-0.764675415 31.627298,1.85919267 31.9780039,7.28132491 Z"></path></clipPath></defs><g transform="translate(5.0 24.0)"><g clip-path="url(#i0)"><polygon points="0,0 55,0 55,59 0,59 0,0" stroke="none" fill="#1C76EB"></polygon></g></g><g transform="translate(0.0 41.0)"><g clip-path="url(#i1)"><polygon points="0,0 38,0 38,18 0,18 0,0" stroke="none" fill="#ED1C24"></polygon></g></g><g transform="translate(26.097990498088617 14.509224037696438) rotate(1.01)"><g clip-path="url(#i2)"><polygon points="7.10542736e-15,0 14.4287251,0 14.4287251,6.82386397 7.10542736e-15,6.82386397 7.10542736e-15,0" stroke="none" fill="#1C76EB"></polygon></g></g><g transform="translate(28.0 25.0)"><g clip-path="url(#i3)"><polygon points="0,0 61,0 61,105 0,105 0,0" stroke="none" fill="#1C76EB"></polygon></g></g><g transform="translate(88.0 18.000000000000007)"><g clip-path="url(#i4)"><polygon points="6.9388939e-18,-1.66533454e-16 47,-1.66533454e-16 47,48 6.9388939e-18,48 6.9388939e-18,-1.66533454e-16" stroke="none" fill="#1C76EB"></polygon></g></g><g transform="translate(138.0 7.0)"><g clip-path="url(#i5)"><polygon points="-1.03250741e-14,0 46,0 46,52 -1.03250741e-14,52 -1.03250741e-14,0" stroke="none" fill="#1C76EB"></polygon></g></g><g transform="translate(183.0 0.0)"><g clip-path="url(#i6)"><polygon points="0,0 34,0 34,52 0,52 0,0" stroke="none" fill="#1C76EB"></polygon></g></g><g transform="translate(83.0 70.0)"><g clip-path="url(#i7)"><polygon points="0,0 32,0 32,50 0,50 0,0" stroke="none" fill="#ED1C24"></polygon></g></g><g transform="translate(116.0 65.0)"><g clip-path="url(#i8)"><polygon points="0,0 15,0 15,49 0,49 0,0" stroke="none" fill="#ED1C24"></polygon></g></g><g transform="translate(132.0 77.0)"><g clip-path="url(#i9)"><polygon points="0,0 14,0 14,34 0,34 0,0" stroke="none" fill="#ED1C24"></polygon></g></g><g transform="translate(137.0 64.0)"><g clip-path="url(#i10)"><polygon points="1.02947165e-14,-2.63677968e-15 10,-2.63677968e-15 10,10 1.02947165e-14,10 1.02947165e-14,-2.63677968e-15" stroke="none" fill="#ED1C24"></polygon></g></g><g transform="translate(148.0 64.0)"><g clip-path="url(#i11)"><polygon points="0,0 21,0 21,42 0,42 0,0" stroke="none" fill="#ED1C24"></polygon></g></g><g transform="translate(169.0 68.0)"><g clip-path="url(#i12)"><polygon points="6.9388939e-18,5.55111512e-17 29,5.55111512e-17 29,34 6.9388939e-18,34 6.9388939e-18,5.55111512e-17" stroke="none" fill="#ED1C24"></polygon></g></g><g transform="translate(200.0 61.0)"><g clip-path="url(#i13)"><polygon points="0,1.99840144e-15 32,1.99840144e-15 32,37 0,37 0,1.99840144e-15" stroke="none" fill="#ED1C24"></polygon></g></g></svg>